<svg xmlns="http://www.w3.org/2000/svg" viewBox="0 0 129.87 68.15"><defs><style>.cls-1{font-size:20px;font-family:Galvji-Bold, Galvji;font-weight:700;letter-spacing:0.02em;}</style></defs><g id="Слой_2" data-name="Слой 2"><g id="Слой_2-2" data-name="Слой 2"><path d="M28.33,51.54C22.79,49.69,19.39,44.72,19.9,40c.4-3.73,3.28-7.75,6.43-8.24l.52-.06a15.27,15.27,0,0,1,4.13.43c2.27.32,3.12.09,3.67-.14.11,0,.39-.21.81-.43a7,7,0,0,0,3-3.6c1.68-3.56.87-5.19,2.37-6a5.78,5.78,0,0,1,3-.4,11.62,11.62,0,0,1,3.41.5c1.87.58,2.09,1.19,3.62,1.6a9.36,9.36,0,0,0,3.51.1c2.86-.4,24-6.45,52.9-15.15a21.33,21.33,0,0,1,4.72-1.41,7.37,7.37,0,0,1,3.71-.1,5.7,5.7,0,0,1,3.09,2.77,1.24,1.24,0,0,0,1.09.64h3.62l.78-2.22L120,4.79l-1.78-3.13L106.23,5a6,6,0,0,1-2,1.5s-.29.13-.6.23c-1.41.44-33.51,9.18-50,13.65A2,2,0,0,1,52,19.87c-.67-.86.52-2.3.95-4.26.61-2.82-.41-6.45-2.52-7.62-1.68-.93-3.71-.11-5.67.68-4.61,1.86-5.56,4.56-11,7.72-1.32.76-2.44,1.28-3.1,1.58H24.85l-.66-.31L18.5,15c-1.95-.89-7.69-2.49-12.24.06S.61,23,.32,24.32C-1.21,31.72,3,38,6.55,43.23c3.27,4.86,5.77,8.58,10.64,9.87S26.51,52.47,28.33,51.54Z"/><circle cx="107.12" cy="2.95" r="0.94"/><circle cx="110.94" cy="2.01" r="0.94"/><circle cx="115.11" cy="0.94" r="0.94"/><text class="cls-1" transform="translate(29.22 49.09)">GUITAR</text><path d="M48.75,64.19c.42,1.86,1.66,3,4,3,2.56,0,3.54-1.28,3.54-2.8s-.7-2.56-3.78-3.33-4.24-1.7-4.24-3.72c0-1.84,1.34-3.56,4.34-3.56s4.38,1.88,4.56,3.58H56c-.32-1.5-1.3-2.58-3.5-2.58-2,0-3.12.94-3.12,2.5s.92,2.14,3.5,2.78c3.94,1,4.52,2.56,4.52,4.25,0,2.06-1.5,3.84-4.74,3.84-3.5,0-4.78-2-5-3.92Z"/><path d="M71.69,64.21a5.11,5.11,0,0,1-5.26,3.9c-4,0-6.14-3.2-6.14-7.15,0-3.78,2.08-7.22,6.16-7.22,3,0,4.8,1.68,5.26,4H70.63a4.05,4.05,0,0,0-4.24-3c-3.48,0-4.94,3.18-4.94,6.2s1.44,6.17,5,6.17a4.11,4.11,0,0,0,4.14-2.9Z"/><path d="M75.31,53.94h1.08V60h8.4v-6.1h1.08V68H84.79V61h-8.4V68H75.31Z"/><path d="M102.15,60.84c0,3.83-2,7.31-6.36,7.31-3.94,0-6.24-3.18-6.24-7.21s2.22-7.2,6.38-7.2C99.77,53.74,102.15,56.76,102.15,60.84Zm-11.44,0c0,3.23,1.78,6.27,5.14,6.27,3.62,0,5.14-3,5.14-6.28s-1.72-6.13-5.1-6.13C92.29,54.74,90.71,57.72,90.71,60.88Z"/><path d="M117.59,60.84c0,3.83-2,7.31-6.36,7.31-3.94,0-6.24-3.18-6.24-7.21s2.22-7.2,6.38-7.2C115.21,53.74,117.59,56.76,117.59,60.84Zm-11.44,0c0,3.23,1.78,6.27,5.14,6.27,3.62,0,5.14-3,5.14-6.28s-1.72-6.13-5.1-6.13C107.73,54.74,106.15,57.72,106.15,60.88Z"/><path d="M121.27,53.94h1.08V67h7.52l-.2,1h-8.4Z"/></g></g></svg>